<?xml version="1.0" encoding="UTF-8"?><svg id="Livello_2" xmlns="http://www.w3.org/2000/svg" viewBox="0 0 140 126"><defs><style>.cls-1{fill:#54c0e7;}.cls-2{fill:#5fa631;}.cls-3{fill:#1b2e51;}</style></defs><g id="Livello_1-2"><g><path class="cls-1" d="M40.5,26.5c2.31-1.26,6.5-3.5,11.5-3.5,60.7,0,34,0,65,0,1.53,0,9.68-.15,16.26-6.74C137.43,12.1,140,6.35,140,0h-48.2c-4.55,0-9.08,.6-13.46,1.84s-8.8,2.88-13.66,5.35c-11.99,6.09-19.8,14.07-24.17,19.31Z"/><path class="cls-2" d="M0,79c2.71-1.47,6.29-4,11-4,71.29,.07,34,0,72.57-.07,1.79,0,13.33-1.18,21.04-8.89,4.87-4.87,7.89-11.61,7.89-19.04H50.06c-5.33,0-10.63,.7-15.76,2.16s-10.82,2.53-16,6.26C5,65,5.12,72.86,0,79Z"/><path class="cls-3" d="M17.5,100.57c2.22,1.21,6.43,3.36,9.6,3.36,58.26,0,32.63-.48,63.83,0,1.47,0,9.29,.15,15.61,6.47,3.99,3.99,6.47,9.51,6.47,15.61h-46.27c-4.37,0-8.71-.58-12.92-1.77s-8.45-2.76-13.12-5.13c-11.51-5.84-19.01-13.5-23.2-18.54Z"/></g></g></svg>