<?xml version="1.0" encoding="UTF-8"?>
<svg id="Livello_2" xmlns="http://www.w3.org/2000/svg" viewBox="0 0 68.08 68.08">
    <defs>
        <style>.cls-1{fill:#efefee;stroke:#efefee;stroke-miterlimit:10;stroke-width:3px;}.cls-2{fill:#233978;}</style>
    </defs>
    <g id="Livello_1-2">
        <g>
            <circle class="cls-2" cx="34.04" cy="34.04" r="34.04" />
            <g>
                <path class="cls-1" d="M29.44,34.75c-.06-.31-.1-.75-.03-1.26,.1-.8,.43-1.38,.63-1.71l-3.07-3.42c-.13-.08-.35-.18-.63-.22-.41-.06-.74,.05-.89,.11-6.24,1.09-12.47,2.17-18.71,3.26-.38,.17-.64,.53-.67,.93-.03,.48,.27,.94,.74,1.12,7.55,.4,15.09,.8,22.64,1.2Z" />
                <path class="cls-1" d="M34.68,38.74c-.31,.04-.75,.06-1.26-.03-.79-.14-1.36-.49-1.67-.72l-3.57,2.89c-.08,.13-.2,.34-.26,.62-.08,.41,.01,.74,.06,.9,.77,6.28,1.54,12.57,2.3,18.85,.15,.39,.49,.67,.89,.72,.47,.06,.95-.22,1.15-.68,.78-7.52,1.57-15.03,2.35-22.55Z" />
                <path class="cls-1" d="M38.79,33.29c.06,.31,.11,.75,.05,1.26-.1,.8-.41,1.39-.62,1.71l3.1,3.39c.13,.08,.35,.18,.63,.22,.41,.06,.74-.05,.89-.12,6.23-1.15,12.45-2.29,18.68-3.44,.38-.17,.64-.53,.66-.93,.03-.48-.27-.93-.75-1.11-7.55-.33-15.1-.66-22.65-.99Z" />
                <path class="cls-1" d="M33.5,29.49c.31-.06,.75-.1,1.26-.03,.8,.1,1.38,.42,1.71,.63l3.42-3.07c.08-.13,.18-.35,.22-.63,.06-.41-.05-.74-.11-.89-1.09-6.24-2.18-12.47-3.26-18.71-.17-.38-.53-.64-.93-.67-.48-.03-.94,.27-1.11,.74-.4,7.55-.8,15.09-1.2,22.64Z" />
                <circle class="cls-1" cx="34.03" cy="34.04" r="2.68" />
            </g>
        </g>
    </g>
</svg>