<?xml version="1.0" encoding="UTF-8"?>
<svg id="Livello_2" data-name="Livello 2" xmlns="http://www.w3.org/2000/svg" viewBox="0 0 1046.24 474.5">
  <defs>
    <style>
      .cls-1 {
        fill: #fff;
      }

      .cls-2 {
        fill: #233978;
      }

      .cls-3 {
        fill: #3c3c3b;
      }

      .cls-4 {
        fill: none;
        stroke: #3c3c3b;
        stroke-miterlimit: 10;
        stroke-width: 3px;
      }

      .cls-5 {
        fill: #4297d1;
      }

      .cls-6 {
        fill: #88b336;
      }
    </style>
  </defs>
  <g id="Livello_1-2" data-name="Livello 1">
    <g>
      <path class="cls-2" d="M233.29,185.2c-2.83-1.09-7.94-2.59-14.31-2.05-4.1,.34-7.43,1.42-9.76,2.4-9.62-59.28-19.24-118.56-28.88-177.82,.58-4,3.65-7.1,7.42-7.64,3.16-.45,6.35,.96,8.32,3.64l56.92,139.82c.74,1.09,2.13,3.46,2.37,6.74,.16,2.28-.3,4.12-.67,5.27-7.14,9.89-14.26,19.76-21.39,29.64Z"/>
      <path class="cls-6" d="M185.76,227c-59.97-3.37-119.92-6.73-179.89-10.07-3.75-1.44-6.12-5.1-5.85-8.9,.24-3.16,2.31-6,5.35-7.35,49.6-8.48,99.19-16.98,148.8-25.49,1.22-.49,3.82-1.34,7.07-.84,2.26,.33,3.99,1.17,5.02,1.8,8.11,9.1,16.22,18.16,24.33,27.26-1.66,2.54-4.23,7.19-5.07,13.54-.56,4.09-.22,7.56,.24,10.04Z"/>
      <path class="cls-5" d="M438.75,194.95c-46.59,18.99-93.21,37.98-139.8,56.96-1.09,.74-3.44,2.12-6.73,2.35-2.3,.17-4.15-.3-5.28-.66-9.89-7.14-19.76-14.26-29.64-21.39,1.09-2.83,2.59-7.94,2.05-14.31-.36-4.11-1.42-7.43-2.41-9.75,59.28-9.65,118.56-19.31,177.82-28.94,4,.58,7.1,3.65,7.64,7.42,.45,3.16-.96,6.35-3.64,8.32Z"/>
      <circle class="cls-1" cx="222.78" cy="219.09" r="25.66"/>
      <path class="cls-3" d="M237.71,254.63c9,72.28,17.97,147.59,26.94,219.87h-79.54c9.4-71.85,18.82-148.02,28.22-219.87h24.38Z"/>
    </g>
    <g>
      <path class="cls-3" d="M564.09,380.63c-.9-.35-2.54-.83-4.57-.65-1.31,.11-2.37,.45-3.12,.76-3.07-18.93-6.14-37.85-9.22-56.78,.19-1.28,1.17-2.27,2.37-2.44,1.01-.14,2.03,.31,2.66,1.16l18.17,44.64c.23,.35,.68,1.1,.76,2.15,.05,.73-.1,1.32-.22,1.68-2.28,3.16-4.55,6.31-6.83,9.46Z"/>
      <path class="cls-3" d="M548.91,393.98c-19.15-1.08-38.29-2.15-57.44-3.21-1.2-.46-1.95-1.63-1.87-2.84,.08-1.01,.74-1.92,1.71-2.35,15.84-2.71,31.67-5.42,47.51-8.14,.39-.16,1.22-.43,2.26-.27,.72,.11,1.28,.38,1.6,.57,2.59,2.9,5.18,5.8,7.77,8.7-.53,.81-1.35,2.3-1.62,4.32-.18,1.31-.07,2.41,.08,3.21Z"/>
      <path class="cls-3" d="M629.69,383.75c-14.88,6.06-29.76,12.12-44.64,18.19-.35,.23-1.1,.68-2.15,.75-.73,.06-1.33-.1-1.69-.21-3.16-2.28-6.31-4.55-9.46-6.83,.35-.9,.83-2.54,.65-4.57-.11-1.31-.45-2.37-.77-3.11,18.93-3.08,37.85-6.16,56.78-9.24,1.28,.19,2.27,1.17,2.44,2.37,.14,1.01-.31,2.03-1.16,2.66Z"/>
      <circle class="cls-3" cx="560.73" cy="391.45" r="8.19"/>
      <path class="cls-3" d="M565.5,402.8c2.87,23.08,5.74,47.12,8.6,70.2h-25.4c3-22.94,6.01-47.26,9.01-70.2h7.78Z"/>
    </g>
    <g>
      <path class="cls-3" d="M380.47,419.39c-.53-.2-1.47-.48-2.65-.38-.76,.06-1.38,.26-1.81,.44-1.78-10.99-3.57-21.97-5.35-32.95,.11-.74,.68-1.32,1.37-1.42,.58-.08,1.18,.18,1.54,.67l10.55,25.91c.14,.2,.4,.64,.44,1.25,.03,.42-.06,.76-.13,.98-1.32,1.83-2.64,3.66-3.96,5.49Z"/>
      <path class="cls-3" d="M371.66,427.13c-11.11-.63-22.22-1.25-33.34-1.87-.69-.27-1.13-.95-1.08-1.65,.04-.59,.43-1.11,.99-1.36,9.19-1.57,18.38-3.15,27.58-4.72,.23-.09,.71-.25,1.31-.16,.42,.06,.74,.22,.93,.33,1.5,1.69,3.01,3.37,4.51,5.05-.31,.47-.78,1.33-.94,2.51-.1,.76-.04,1.4,.04,1.86Z"/>
      <path class="cls-3" d="M418.55,421.19c-8.63,3.52-17.27,7.04-25.91,10.56-.2,.14-.64,.39-1.25,.44-.43,.03-.77-.06-.98-.12-1.83-1.32-3.66-2.64-5.49-3.96,.2-.53,.48-1.47,.38-2.65-.07-.76-.26-1.38-.45-1.81,10.99-1.79,21.97-3.58,32.95-5.36,.74,.11,1.32,.68,1.42,1.37,.08,.58-.18,1.18-.67,1.54Z"/>
      <circle class="cls-3" cx="378.52" cy="425.67" r="4.76"/>
      <path class="cls-3" d="M381.29,432.25c1.67,13.39,3.33,27.35,4.99,40.75h-14.74c1.74-13.32,3.49-27.43,5.23-40.75h4.52Z"/>
    </g>
    <line class="cls-4" x1=".24" y1="473" x2="1046.24" y2="473"/>
  </g>
</svg>