<?xml version="1.0" encoding="UTF-8"?>
<svg id="Livello_2" data-name="Livello 2" xmlns="http://www.w3.org/2000/svg" xmlns:xlink="http://www.w3.org/1999/xlink" viewBox="0 0 65.15 67.24">
  <defs>
    <style>
      .cls-1 {
        fill: url(#Sfumatura_senza_nome_19);
      }

      .cls-2 {
        fill: url(#Sfumatura_senza_nome_30);
      }

      .cls-3 {
        fill: url(#Sfumatura_senza_nome_31);
      }

      .cls-4 {
        fill: #063;
      }
    </style>
    <radialGradient id="Sfumatura_senza_nome_31" data-name="Sfumatura senza nome 31" cx="32.58" cy="33.62" fx="32.58" fy="33.62" r="33.1" gradientUnits="userSpaceOnUse">
      <stop offset="0" stop-color="#5fa731"/>
      <stop offset=".65" stop-color="#5fa631"/>
      <stop offset=".99" stop-color="#008d36"/>
    </radialGradient>
    <radialGradient id="Sfumatura_senza_nome_19" data-name="Sfumatura senza nome 19" cx="32.83" cy="33.5" fx="32.83" fy="33.5" r="21.5" gradientUnits="userSpaceOnUse">
      <stop offset="0" stop-color="#fff"/>
      <stop offset="1" stop-color="#cfded8"/>
    </radialGradient>
    <linearGradient id="Sfumatura_senza_nome_30" data-name="Sfumatura senza nome 30" x1="21.72" y1="30.17" x2="46.35" y2="30.17" gradientUnits="userSpaceOnUse">
      <stop offset="0" stop-color="#5fa731"/>
      <stop offset=".65" stop-color="#5fa631"/>
      <stop offset=".99" stop-color="#008d36"/>
    </linearGradient>
  </defs>
  <g id="Livello_1-2" data-name="Livello 1">
    <path class="cls-3" d="M63.19,39.87l-1.48-.77c-.76-.4-1.6-.51-2.39-.36,.34-1.69,.51-3.45,.51-5.24,0-2.34-.3-4.61-.86-6.78,.79,.1,1.63-.05,2.37-.5l1.42-.86c1.74-1.05,2.29-3.3,1.25-5.04l-5-8.27c-1.05-1.74-3.3-2.29-5.03-1.25l-1.43,.87c-.74,.44-1.27,1.12-1.54,1.88-2.96-2.71-6.53-4.76-10.47-5.93,.49-.63,.79-1.43,.79-2.29v-1.66c0-2.03-1.64-3.67-3.67-3.67h-9.66c-2.03,0-3.67,1.64-3.67,3.67v1.66c0,.86,.3,1.66,.79,2.29-4.99,1.48-9.37,4.37-12.68,8.2-.35-.73-.96-1.34-1.75-1.7l-1.52-.69c-1.84-.83-4.01-.02-4.85,1.83L.33,24.06c-.84,1.85-.02,4.02,1.82,4.86l1.52,.68c.79,.36,1.64,.42,2.42,.21-.17,1.2-.26,2.44-.26,3.69,0,2.9,.46,5.69,1.31,8.31-.8-.06-1.63,.14-2.34,.63l-1.37,.94c-1.67,1.15-2.1,3.43-.95,5.1l5.47,7.97c1.15,1.67,3.43,2.09,5.1,.95l1.37-.95c.72-.49,1.21-1.19,1.44-1.96,3.1,2.52,6.78,4.36,10.81,5.29-.47,.65-.72,1.47-.67,2.34l.09,1.66c.12,2.02,1.86,3.56,3.88,3.45l9.65-.57c2.02-.12,3.56-1.85,3.44-3.88l-.09-1.66c-.05-.86-.4-1.63-.93-2.23,3.85-1.4,7.3-3.65,10.1-6.53,.32,.74,.89,1.38,1.66,1.78l1.47,.78c1.79,.94,4.01,.25,4.95-1.54l4.51-8.55c.94-1.8,.25-4.01-1.54-4.96Zm-30.36,15.13c-11.87,0-21.5-9.63-21.5-21.5S20.96,12,32.83,12s21.5,9.63,21.5,21.5-9.63,21.5-21.5,21.5Z"/>
    <circle class="cls-1" cx="32.83" cy="33.5" r="21.5"/>
    <g>
      <path class="cls-2" d="M43.14,34c-1.43,2.31-3.63,5.85-8,7-.26,.07-5.2,1.28-9.19-1.4l9.02-10.4c.1-.12,.12-.29,.05-.43l-.65-1.31c-.11-.23-.42-.28-.61-.11l-10.36,9.68c-2.68-3.98-1.38-8.62-1.26-9.03,1.36-4.6,5.63-7.28,9-8,2.83-.6,3.95,.4,9,0,2.56-.2,4.64-.65,6-1,.34,2.71,.72,9.01-3,15Z"/>
      <path class="cls-4" d="M34.97,29.2l-9.02,10.4-3.54,4.08c-.14,.18-.41,.18-.56,.03l-2.43-2.43c-.15-.15-.15-.4,.01-.55l3.97-3.7,10.36-9.68c.19-.17,.5-.12,.61,.11l.65,1.31c.07,.14,.05,.31-.05,.43Z"/>
    </g>
  </g>
</svg>