<?xml version="1.0" encoding="UTF-8"?><svg id="Livello_2" xmlns="http://www.w3.org/2000/svg" viewBox="0 0 146.76 52.55"><defs><style>.cls-1{fill:#fff;}</style></defs><g id="Livello_1-2"><g><path class="cls-1" d="M46.07,19.43h-5.29V4.97h-5.73V.33h16.75V4.97h-5.73v14.46Z"/><path class="cls-1" d="M57.58,16.02l-1.36,3.41h-5.57L58.78,.19h5.1l8.13,19.24h-5.67l-1.39-3.41h-7.37Zm1.55-4.12h4.28l-2.13-5.43-2.16,5.43Z"/><path class="cls-1" d="M83.47,15.33c.29-.02,.56-.07,.8-.16,.25-.09,.45-.22,.63-.4,.17-.17,.26-.41,.26-.72,0-.47-.26-.84-.78-1.09-.52-.25-1.16-.48-1.92-.68-.76-.2-1.6-.41-2.51-.64-.91-.23-1.75-.55-2.51-.98-.76-.43-1.41-1-1.92-1.72s-.78-1.66-.78-2.82c0-1.04,.2-1.94,.61-2.7,.41-.76,.96-1.4,1.64-1.91,.68-.51,1.47-.89,2.36-1.13,.89-.25,1.82-.37,2.78-.37,1.64,0,3.1,.21,4.38,.64,1.28,.43,2.44,1.06,3.48,1.9V7.37c-.49-.42-1.04-.81-1.64-1.19-.6-.37-1.23-.7-1.88-.98-.66-.28-1.32-.51-1.99-.68-.67-.17-1.32-.26-1.94-.26-.87,0-1.5,.15-1.88,.44-.38,.29-.57,.6-.57,.93,0,.49,.27,.86,.82,1.1,.55,.25,1.22,.47,2.02,.67,.8,.2,1.66,.43,2.59,.68,.93,.26,1.78,.63,2.55,1.12,.77,.49,1.39,1.16,1.86,1.99,.46,.84,.64,1.94,.53,3.3-.11,.84-.37,1.58-.79,2.22-.42,.65-.95,1.2-1.61,1.65-.65,.46-1.43,.8-2.32,1.04-.89,.24-1.87,.35-2.95,.35-1.6,0-3.19-.25-4.77-.76-1.58-.51-2.97-1.31-4.17-2.4v-4.75c.58,.49,1.22,.96,1.92,1.39,.7,.44,1.44,.81,2.22,1.12,.78,.31,1.57,.56,2.37,.74,.8,.18,1.58,.27,2.35,.27,.22,0,.47,0,.76-.03Z"/><path class="cls-1" d="M98.62,8.08L105.19,.33h6.28l-7.23,8.21,7.48,10.89h-6.36l-6.74-10.04v10.04h-5.29V.33h5.29v7.75Z"/></g><g><path class="cls-1" d="M5.18,41.25v10.91H0v-19.1H5.59l4.56,7.39,4.56-7.39h5.59v19.1h-5.27v-10.97l-4.94,7.48-4.91-7.42Z"/><path class="cls-1" d="M28.76,48.76l-1.36,3.41h-5.57l8.13-19.24h5.1l8.13,19.24h-5.67l-1.39-3.41h-7.37Zm1.55-4.12h4.28l-2.13-5.43-2.16,5.43Z"/><path class="cls-1" d="M58.44,43.16v-10.09h5.24v19.1h-4.64l-8.16-10.48v10.48h-5.24v-19.1h4.94l7.86,10.09Z"/><path class="cls-1" d="M72.82,48.76l-1.36,3.41h-5.57l8.13-19.24h5.1l8.13,19.24h-5.67l-1.39-3.41h-7.37Zm1.55-4.12h4.28l-2.13-5.43-2.16,5.43Z"/><path class="cls-1" d="M98.82,44.88v-3.87h8.79v1.09c0,2.06-.26,3.76-.79,5.1-.53,1.35-1.21,2.41-2.05,3.21-.84,.79-1.78,1.35-2.84,1.66-1.06,.32-2.11,.48-3.17,.48-1.35,0-2.62-.25-3.82-.74-1.2-.49-2.25-1.18-3.14-2.06-.89-.88-1.6-1.93-2.11-3.15-.52-1.22-.78-2.55-.78-3.98s.26-2.7,.78-3.9c.52-1.2,1.23-2.25,2.14-3.15s2-1.61,3.26-2.11c1.26-.51,2.63-.76,4.11-.76,.93,0,1.86,.08,2.78,.25,.93,.16,1.73,.39,2.4,.68v5.59c-.69-.58-1.46-1.03-2.29-1.34-.84-.31-1.7-.46-2.59-.46-.76,0-1.46,.14-2.09,.41s-1.17,.65-1.62,1.12c-.46,.47-.81,1.03-1.06,1.66s-.38,1.32-.38,2.05c0,.78,.12,1.5,.37,2.16,.25,.65,.58,1.22,1.01,1.69,.43,.47,.93,.84,1.5,1.1,.57,.26,1.18,.4,1.81,.4,.36,0,.75-.05,1.17-.16s.8-.29,1.16-.53c.35-.25,.65-.56,.87-.96,.23-.39,.34-.88,.34-1.46h-3.77Z"/><path class="cls-1" d="M116.06,47.66h10.26v4.5h-15.5v-19.1h15.36v4.5h-10.12v2.89h9.17v4.17h-9.17v3.03Z"/><path class="cls-1" d="M129.19,52.17v-19.1h9.03c1.33,0,2.49,.15,3.48,.46,.99,.31,1.81,.75,2.47,1.32,.66,.57,1.15,1.26,1.47,2.06,.33,.8,.49,1.69,.49,2.67,0,1.47-.35,2.7-1.06,3.68-.71,.98-1.66,1.73-2.86,2.24l4.56,6.66h-6.11l-3.82-5.78h-2.32v5.78h-5.32Zm8.79-9.93c.45,0,.85-.05,1.2-.16,.34-.11,.64-.27,.89-.48,.25-.21,.43-.45,.56-.74,.13-.28,.19-.6,.19-.94,0-.76-.26-1.33-.76-1.71-.51-.37-1.21-.56-2.1-.56h-3.44v4.58h3.47Z"/></g></g></svg>